<mxfile host="app.diagrams.net" modified="2024-03-02T18:54:23.156Z" agent="Mozilla/5.0 (Macintosh; Intel Mac OS X 10_15_7) AppleWebKit/537.36 (KHTML, like Gecko) Chrome/121.0.0.0 Safari/537.36" version="23.1.6" etag="ynOs8yjnG4JSaMoyMpTA" type="github">
  <diagram name="Page-1" id="2cJXwp5oWL4Eqhn22xIr">
    <mxGraphModel>
      <root>
        <mxCell id="0" />
        <mxCell id="1" parent="0" />
      </root>
    </mxGraphModel>
  </diagram>
</mxfile>
